<?xml version="1.0" encoding="UTF-8" standalone="no"?>
<!DOCTYPE svg PUBLIC "-//W3C//DTD SVG 1.1//EN" "http://www.w3.org/Graphics/SVG/1.1/DTD/svg11.dtd">
<svg width="100%" height="100%" viewBox="0 0 1000 320" version="1.1" xmlns="http://www.w3.org/2000/svg" xmlns:xlink="http://www.w3.org/1999/xlink" xml:space="preserve" xmlns:serif="http://www.serif.com/" style="fill-rule:evenodd;clip-rule:evenodd;stroke-linejoin:round;stroke-miterlimit:2;">
    <g transform="matrix(1,0,0,1,-32.9444,-6.61216)">
        <g transform="matrix(1.51153,0.266524,-0.230987,1.31,-48.7213,-161.998)">
            <path d="M612.108,19.021L709.493,213.791L514.722,213.791L612.108,19.021Z" style="fill:rgb(214,40,40);"/>
        </g>
        <g transform="matrix(1,0,0,1,-111.533,98.8025)">
            <g transform="matrix(192,0,0,192,196.576,126.26)">
                <path d="M0.288,0.007C0.237,0.007 0.192,-0.004 0.154,-0.026C0.116,-0.047 0.087,-0.078 0.066,-0.117C0.045,-0.156 0.034,-0.202 0.034,-0.255C0.034,-0.304 0.044,-0.347 0.065,-0.385C0.086,-0.423 0.115,-0.453 0.152,-0.475C0.189,-0.496 0.232,-0.507 0.279,-0.507C0.329,-0.507 0.372,-0.497 0.409,-0.477C0.446,-0.456 0.474,-0.427 0.495,-0.39C0.516,-0.353 0.526,-0.309 0.526,-0.26C0.526,-0.252 0.526,-0.244 0.525,-0.235C0.524,-0.226 0.523,-0.217 0.522,-0.206L0.19,-0.206C0.193,-0.188 0.2,-0.172 0.209,-0.16C0.218,-0.147 0.23,-0.137 0.245,-0.13C0.259,-0.123 0.275,-0.119 0.294,-0.119C0.315,-0.119 0.333,-0.123 0.35,-0.132C0.367,-0.141 0.379,-0.153 0.387,-0.169L0.518,-0.133C0.498,-0.088 0.468,-0.054 0.428,-0.03C0.388,-0.005 0.341,0.007 0.288,0.007ZM0.367,-0.301C0.366,-0.318 0.362,-0.332 0.354,-0.345C0.346,-0.358 0.336,-0.368 0.323,-0.375C0.31,-0.382 0.296,-0.386 0.281,-0.385C0.266,-0.384 0.252,-0.381 0.24,-0.374C0.227,-0.367 0.217,-0.357 0.208,-0.345C0.199,-0.332 0.194,-0.318 0.192,-0.301L0.367,-0.301Z" style="fill:rgb(10,10,10);fill-rule:nonzero;"/>
            </g>
            <g transform="matrix(192,0,0,192,297.184,126.26)">
                <path d="M0.082,-0.537C0.082,-0.584 0.091,-0.622 0.109,-0.651C0.126,-0.68 0.152,-0.7 0.185,-0.711C0.218,-0.722 0.259,-0.725 0.307,-0.72L0.307,-0.59C0.28,-0.594 0.261,-0.591 0.248,-0.58C0.235,-0.569 0.228,-0.551 0.228,-0.526L0.228,-0.5L0.311,-0.5L0.311,-0.371L0.228,-0.371L0.228,-0L0.082,-0L0.082,-0.371L0.025,-0.371L0.025,-0.5L0.082,-0.5L0.082,-0.537Z" style="fill:rgb(10,10,10);fill-rule:nonzero;"/>
            </g>
            <g transform="matrix(192,0,0,192,355.168,126.26)">
                <path d="M0.082,-0.537C0.082,-0.584 0.091,-0.622 0.109,-0.651C0.126,-0.68 0.152,-0.7 0.185,-0.711C0.218,-0.722 0.259,-0.725 0.307,-0.72L0.307,-0.59C0.28,-0.594 0.261,-0.591 0.248,-0.58C0.235,-0.569 0.228,-0.551 0.228,-0.526L0.228,-0.5L0.311,-0.5L0.311,-0.371L0.228,-0.371L0.228,-0L0.082,-0L0.082,-0.371L0.025,-0.371L0.025,-0.5L0.082,-0.5L0.082,-0.537Z" style="fill:rgb(10,10,10);fill-rule:nonzero;"/>
            </g>
            <g transform="matrix(192,0,0,192,411.232,126.26)">
                <path d="M0.288,0.007C0.237,0.007 0.192,-0.004 0.154,-0.026C0.116,-0.047 0.087,-0.078 0.066,-0.117C0.045,-0.156 0.034,-0.202 0.034,-0.255C0.034,-0.304 0.044,-0.347 0.065,-0.385C0.086,-0.423 0.115,-0.453 0.152,-0.475C0.189,-0.496 0.232,-0.507 0.279,-0.507C0.329,-0.507 0.372,-0.497 0.409,-0.477C0.446,-0.456 0.474,-0.427 0.495,-0.39C0.516,-0.353 0.526,-0.309 0.526,-0.26C0.526,-0.252 0.526,-0.244 0.525,-0.235C0.524,-0.226 0.523,-0.217 0.522,-0.206L0.19,-0.206C0.193,-0.188 0.2,-0.172 0.209,-0.16C0.218,-0.147 0.23,-0.137 0.245,-0.13C0.259,-0.123 0.275,-0.119 0.294,-0.119C0.315,-0.119 0.333,-0.123 0.35,-0.132C0.367,-0.141 0.379,-0.153 0.387,-0.169L0.518,-0.133C0.498,-0.088 0.468,-0.054 0.428,-0.03C0.388,-0.005 0.341,0.007 0.288,0.007ZM0.367,-0.301C0.366,-0.318 0.362,-0.332 0.354,-0.345C0.346,-0.358 0.336,-0.368 0.323,-0.375C0.31,-0.382 0.296,-0.386 0.281,-0.385C0.266,-0.384 0.252,-0.381 0.24,-0.374C0.227,-0.367 0.217,-0.357 0.208,-0.345C0.199,-0.332 0.194,-0.318 0.192,-0.301L0.367,-0.301Z" style="fill:rgb(10,10,10);fill-rule:nonzero;"/>
            </g>
            <g transform="matrix(192,0,0,192,511.84,126.26)">
                <path d="M0.281,0.007C0.232,0.008 0.189,-0.003 0.152,-0.025C0.115,-0.046 0.086,-0.076 0.065,-0.115C0.044,-0.153 0.034,-0.198 0.034,-0.249C0.034,-0.3 0.044,-0.345 0.065,-0.384C0.086,-0.423 0.115,-0.453 0.152,-0.475C0.189,-0.496 0.232,-0.507 0.281,-0.507C0.336,-0.507 0.385,-0.493 0.427,-0.466C0.468,-0.438 0.497,-0.4 0.514,-0.352L0.376,-0.318C0.369,-0.336 0.358,-0.35 0.343,-0.36C0.328,-0.37 0.31,-0.375 0.29,-0.375C0.27,-0.375 0.252,-0.37 0.237,-0.359C0.222,-0.348 0.21,-0.334 0.202,-0.315C0.193,-0.296 0.189,-0.274 0.189,-0.249C0.189,-0.212 0.198,-0.182 0.217,-0.159C0.236,-0.136 0.26,-0.125 0.29,-0.125C0.309,-0.125 0.327,-0.13 0.342,-0.14C0.357,-0.149 0.369,-0.163 0.378,-0.181L0.515,-0.146C0.498,-0.1 0.469,-0.063 0.427,-0.036C0.384,-0.008 0.336,0.006 0.281,0.007Z" style="fill:rgb(10,10,10);fill-rule:nonzero;"/>
            </g>
            <g transform="matrix(192,0,0,192,608.8,126.26)">
                <path d="M0.095,-0.5L0.095,-0.64L0.244,-0.64L0.244,-0.5L0.347,-0.5L0.347,-0.371L0.244,-0.371L0.244,-0.191C0.244,-0.168 0.249,-0.152 0.26,-0.143C0.27,-0.134 0.283,-0.129 0.299,-0.129C0.315,-0.128 0.331,-0.129 0.347,-0.132L0.347,-0.005C0.313,0.001 0.281,0.003 0.25,0.001C0.219,-0.002 0.193,-0.01 0.17,-0.024C0.147,-0.038 0.128,-0.059 0.115,-0.086C0.102,-0.113 0.095,-0.148 0.095,-0.191L0.095,-0.371L0.025,-0.371L0.025,-0.5L0.095,-0.5Z" style="fill:rgb(10,10,10);fill-rule:nonzero;"/>
            </g>
            <g transform="matrix(192,0,0,192,673.696,126.26)">
                <rect x="0.046" y="-0.345" width="0.432" height="0.13" style="fill:rgb(10,10,10);fill-rule:nonzero;"/>
            </g>
            <g transform="matrix(192,0,0,192,767.776,126.26)">
                <path d="M0.509,-0L0.376,-0L0.366,-0.055C0.349,-0.036 0.33,-0.021 0.308,-0.01C0.285,0.001 0.261,0.007 0.234,0.007C0.197,0.007 0.164,-0.001 0.137,-0.018C0.11,-0.035 0.088,-0.059 0.073,-0.092C0.058,-0.124 0.05,-0.163 0.05,-0.208L0.05,-0.5L0.196,-0.5L0.196,-0.226C0.196,-0.193 0.203,-0.167 0.217,-0.15C0.23,-0.133 0.251,-0.124 0.279,-0.124C0.306,-0.124 0.326,-0.133 0.341,-0.151C0.356,-0.169 0.363,-0.195 0.363,-0.228L0.363,-0.5L0.509,-0.5L0.509,-0Z" style="fill:rgb(10,10,10);fill-rule:nonzero;"/>
            </g>
            <g transform="matrix(192,0,0,192,869.344,126.26)">
                <path d="M0.345,-0L0.335,-0.062C0.318,-0.041 0.299,-0.024 0.279,-0.012C0.259,0 0.232,0.006 0.199,0.006C0.168,0.006 0.14,0 0.115,-0.011C0.09,-0.022 0.071,-0.038 0.057,-0.059C0.042,-0.08 0.035,-0.106 0.035,-0.136C0.035,-0.177 0.05,-0.212 0.08,-0.239C0.109,-0.266 0.155,-0.283 0.218,-0.29L0.335,-0.303L0.335,-0.336C0.335,-0.347 0.33,-0.359 0.319,-0.37C0.308,-0.381 0.29,-0.386 0.267,-0.386C0.246,-0.386 0.229,-0.381 0.214,-0.37C0.199,-0.359 0.188,-0.344 0.183,-0.324L0.058,-0.369C0.073,-0.414 0.098,-0.448 0.136,-0.472C0.173,-0.495 0.218,-0.507 0.273,-0.507C0.341,-0.507 0.393,-0.49 0.428,-0.456C0.463,-0.422 0.481,-0.376 0.481,-0.319L0.481,-0L0.345,-0ZM0.335,-0.213L0.242,-0.202C0.223,-0.199 0.209,-0.194 0.2,-0.185C0.19,-0.175 0.185,-0.164 0.185,-0.151C0.185,-0.138 0.19,-0.128 0.201,-0.119C0.212,-0.11 0.226,-0.106 0.245,-0.106C0.264,-0.106 0.28,-0.11 0.293,-0.118C0.306,-0.125 0.317,-0.136 0.324,-0.151C0.331,-0.165 0.335,-0.183 0.335,-0.204L0.335,-0.213Z" style="fill:rgb(10,10,10);fill-rule:nonzero;"/>
            </g>
            <g transform="matrix(192,0,0,192,964.384,126.26)">
                <path d="M0.075,-0.5L0.221,-0.5L0.221,-0L0.075,-0L0.075,-0.5ZM0.148,-0.551C0.121,-0.551 0.098,-0.559 0.082,-0.576C0.065,-0.592 0.056,-0.612 0.056,-0.635C0.056,-0.659 0.065,-0.679 0.082,-0.696C0.098,-0.712 0.121,-0.72 0.148,-0.72C0.175,-0.72 0.197,-0.712 0.214,-0.696C0.231,-0.679 0.239,-0.659 0.239,-0.635C0.239,-0.612 0.231,-0.592 0.214,-0.576C0.197,-0.559 0.175,-0.551 0.148,-0.551Z" style="fill:rgb(10,10,10);fill-rule:nonzero;"/>
            </g>
        </g>
        <g transform="matrix(1,0,0,1,-111.533,98.8025)">
            <path d="M815.749,127.471L865.504,68.137L865.504,126.26L839.968,126.26L838.048,115.7C834.848,119.284 831.104,122.164 826.816,124.34C823.392,126.077 819.703,127.121 815.749,127.471ZM992.8,20.468C987.552,20.468 983.296,18.9 980.032,15.764C976.768,12.628 975.136,8.82 975.136,4.34C975.136,-0.268 976.768,-4.14 980.032,-7.276C983.296,-10.412 987.552,-11.98 992.8,-11.98C997.92,-11.98 1002.11,-10.412 1005.38,-7.276C1008.64,-4.14 1010.27,-0.268 1010.27,4.34C1010.27,8.82 1008.64,12.628 1005.38,15.764C1002.11,18.9 997.92,20.468 992.8,20.468ZM978.784,30.26L1006.82,30.26L1006.82,126.26L978.784,126.26L978.784,30.26ZM935.584,126.26L933.664,114.356C930.336,118.452 926.752,121.652 922.912,123.956C919.072,126.26 913.952,127.412 907.552,127.412C901.536,127.412 896.16,126.356 891.424,124.244C886.688,122.132 882.944,119.028 880.192,114.932C877.44,110.836 876.064,105.908 876.064,100.148C876.064,92.212 878.912,85.62 884.608,80.372C890.304,75.124 899.168,71.86 911.2,70.58L933.664,68.084L933.664,61.748C933.664,59.572 932.608,57.428 930.496,55.316C928.384,53.204 925.088,52.148 920.608,52.148C916.64,52.148 913.216,53.172 910.336,55.22C907.456,57.268 905.504,60.212 904.48,64.052L880.48,55.412C883.296,46.836 888.256,40.276 895.36,35.732C902.464,31.188 911.264,28.916 921.76,28.916C934.816,28.916 944.736,32.18 951.52,38.708C958.304,45.236 961.696,54.004 961.696,65.012L961.696,126.26L935.584,126.26ZM933.664,85.364L915.808,87.476C912.224,87.988 909.504,89.108 907.648,90.836C905.792,92.564 904.864,94.708 904.864,97.268C904.864,99.7 905.888,101.748 907.936,103.412C909.984,105.076 912.8,105.908 916.384,105.908C919.968,105.908 923.04,105.172 925.6,103.7C928.16,102.228 930.144,100.116 931.552,97.364C932.96,94.612 933.664,91.188 933.664,87.092L933.664,85.364Z" style="fill:white;"/>
        </g>
    </g>
    <g transform="matrix(1,0,0,1,-44.4937,44.4996)">
        <g transform="matrix(48,0,0,48,98.8005,246.452)">
            <path d="M0.09,0.138L0.438,-0.76L0.51,-0.76L0.162,0.138L0.09,0.138Z" style="fill:rgb(107,107,107);fill-rule:nonzero;"/>
        </g>
        <g transform="matrix(48,0,0,48,125.921,246.452)">
            <rect x="0.268" y="-0.759" width="0.066" height="0.271" style="fill:rgb(107,107,107);fill-rule:nonzero;"/>
        </g>
        <g transform="matrix(48,0,0,48,153.139,246.452)">
            <path d="M0.332,-0.63C0.309,-0.63 0.292,-0.635 0.283,-0.645C0.274,-0.654 0.269,-0.666 0.269,-0.681L0.269,-0.697C0.269,-0.712 0.274,-0.724 0.283,-0.734C0.292,-0.743 0.309,-0.748 0.332,-0.748C0.355,-0.748 0.372,-0.743 0.381,-0.734C0.39,-0.724 0.395,-0.712 0.395,-0.697L0.395,-0.681C0.395,-0.666 0.39,-0.654 0.381,-0.645C0.372,-0.635 0.355,-0.63 0.332,-0.63ZM0.106,-0.068L0.292,-0.068L0.292,-0.448L0.106,-0.448L0.106,-0.516L0.372,-0.516L0.372,-0.068L0.546,-0.068L0.546,-0L0.106,-0L0.106,-0.068Z" style="fill:rgb(107,107,107);fill-rule:nonzero;"/>
        </g>
        <g transform="matrix(48,0,0,48,180.259,246.452)">
            <path d="M0.3,0.009C0.273,0.009 0.254,0.003 0.243,-0.008C0.232,-0.019 0.226,-0.034 0.226,-0.051L0.226,-0.069C0.226,-0.086 0.232,-0.101 0.243,-0.112C0.254,-0.123 0.273,-0.129 0.3,-0.129C0.327,-0.129 0.347,-0.123 0.358,-0.112C0.369,-0.101 0.374,-0.086 0.374,-0.069L0.374,-0.051C0.374,-0.034 0.369,-0.019 0.358,-0.008C0.347,0.003 0.327,0.009 0.3,0.009Z" style="fill:rgb(107,107,107);fill-rule:nonzero;"/>
        </g>
        <g transform="matrix(48,0,0,48,207.379,246.452)">
            <path d="M0.083,-0.068L0.257,-0.068L0.257,-0.448L0.073,-0.448L0.073,-0.516L0.257,-0.516L0.257,-0.622C0.257,-0.657 0.266,-0.685 0.285,-0.707C0.303,-0.729 0.332,-0.74 0.371,-0.74L0.544,-0.74L0.544,-0.672L0.337,-0.672L0.337,-0.516L0.544,-0.516L0.544,-0.448L0.337,-0.448L0.337,-0.068L0.521,-0.068L0.521,-0L0.083,-0L0.083,-0.068Z" style="fill:rgb(107,107,107);fill-rule:nonzero;"/>
        </g>
        <g transform="matrix(48,0,0,48,234.499,246.452)">
            <path d="M0.219,-0.296C0.181,-0.305 0.151,-0.319 0.129,-0.34C0.109,-0.361 0.098,-0.387 0.098,-0.417C0.098,-0.461 0.118,-0.496 0.158,-0.521C0.197,-0.547 0.251,-0.56 0.319,-0.56C0.346,-0.56 0.374,-0.558 0.403,-0.554C0.433,-0.55 0.465,-0.544 0.5,-0.537L0.5,-0.455C0.466,-0.464 0.435,-0.47 0.406,-0.475C0.378,-0.479 0.352,-0.48 0.327,-0.48C0.282,-0.48 0.248,-0.473 0.224,-0.459C0.2,-0.445 0.188,-0.426 0.188,-0.402C0.188,-0.382 0.199,-0.366 0.223,-0.352C0.246,-0.337 0.28,-0.33 0.324,-0.33L0.405,-0.33L0.405,-0.26L0.327,-0.26C0.278,-0.26 0.24,-0.251 0.213,-0.233C0.186,-0.215 0.172,-0.193 0.172,-0.167C0.172,-0.135 0.187,-0.11 0.216,-0.093C0.245,-0.076 0.288,-0.067 0.345,-0.067C0.377,-0.067 0.408,-0.07 0.438,-0.076C0.467,-0.082 0.494,-0.09 0.52,-0.101L0.52,-0.017C0.488,-0.007 0.458,-0.001 0.428,0.004C0.399,0.008 0.37,0.011 0.342,0.011C0.259,0.011 0.195,-0.004 0.15,-0.034C0.105,-0.064 0.083,-0.106 0.083,-0.16C0.083,-0.195 0.095,-0.225 0.119,-0.249C0.143,-0.273 0.176,-0.289 0.219,-0.296Z" style="fill:rgb(107,107,107);fill-rule:nonzero;"/>
        </g>
        <g transform="matrix(48,0,0,48,261.717,246.452)">
            <path d="M0.105,-0.74L0.185,-0.74L0.185,-0.273L0.189,-0.273L0.279,-0.358L0.451,-0.516L0.549,-0.516L0.335,-0.314L0.574,-0L0.475,-0L0.274,-0.268L0.185,-0.187L0.185,-0L0.105,-0L0.105,-0.74Z" style="fill:rgb(107,107,107);fill-rule:nonzero;"/>
        </g>
        <g transform="matrix(48,0,0,48,288.837,246.452)">
            <path d="M0.325,-0C0.286,-0 0.257,-0.011 0.239,-0.033C0.22,-0.055 0.211,-0.083 0.211,-0.118L0.211,-0.448L0.039,-0.448L0.039,-0.516L0.167,-0.516C0.184,-0.516 0.197,-0.52 0.204,-0.527C0.211,-0.534 0.214,-0.546 0.214,-0.563L0.214,-0.698L0.291,-0.698L0.291,-0.516L0.526,-0.516L0.526,-0.448L0.291,-0.448L0.291,-0.068L0.526,-0.068L0.526,-0L0.325,-0Z" style="fill:rgb(107,107,107);fill-rule:nonzero;"/>
        </g>
        <g transform="matrix(48,0,0,48,343.077,246.452)">
            <rect x="0.268" y="-0.759" width="0.066" height="0.271" style="fill:rgb(107,107,107);fill-rule:nonzero;"/>
        </g>
        <g transform="matrix(48,0,0,48,370.296,246.452)">
            <path d="M0.03,-0.516L0.101,-0.516L0.16,-0.07L0.169,-0.07L0.257,-0.516L0.345,-0.516L0.433,-0.07L0.442,-0.07L0.501,-0.516L0.57,-0.516L0.491,-0L0.387,-0L0.305,-0.432L0.297,-0.432L0.213,-0L0.109,-0L0.03,-0.516Z" style="fill:rgb(107,107,107);fill-rule:nonzero;"/>
        </g>
        <g transform="matrix(48,0,0,48,397.416,246.452)">
            <path d="M0.495,-0C0.464,-0 0.441,-0.008 0.428,-0.024C0.415,-0.04 0.406,-0.06 0.403,-0.084L0.398,-0.084C0.387,-0.054 0.369,-0.031 0.344,-0.014C0.319,0.004 0.285,0.012 0.243,0.012C0.189,0.012 0.146,-0.002 0.114,-0.03C0.082,-0.058 0.066,-0.096 0.066,-0.145C0.066,-0.193 0.084,-0.23 0.119,-0.256C0.154,-0.282 0.21,-0.295 0.288,-0.295L0.398,-0.295L0.398,-0.346C0.398,-0.384 0.387,-0.413 0.366,-0.432C0.345,-0.451 0.314,-0.46 0.275,-0.46C0.24,-0.46 0.212,-0.453 0.19,-0.44C0.168,-0.426 0.15,-0.407 0.137,-0.384L0.083,-0.424C0.09,-0.437 0.099,-0.45 0.11,-0.463C0.121,-0.476 0.135,-0.487 0.152,-0.497C0.169,-0.506 0.188,-0.514 0.209,-0.52C0.23,-0.525 0.254,-0.528 0.28,-0.528C0.341,-0.528 0.389,-0.513 0.425,-0.482C0.46,-0.451 0.478,-0.409 0.478,-0.354L0.478,-0.07L0.55,-0.07L0.55,-0L0.495,-0ZM0.257,-0.055C0.278,-0.055 0.297,-0.057 0.314,-0.063C0.331,-0.068 0.345,-0.074 0.358,-0.083C0.371,-0.091 0.381,-0.101 0.388,-0.113C0.395,-0.124 0.398,-0.137 0.398,-0.15L0.398,-0.235L0.288,-0.235C0.24,-0.235 0.205,-0.228 0.183,-0.215C0.161,-0.202 0.15,-0.182 0.15,-0.157L0.15,-0.136C0.15,-0.109 0.16,-0.089 0.179,-0.076C0.198,-0.062 0.224,-0.055 0.257,-0.055Z" style="fill:rgb(107,107,107);fill-rule:nonzero;"/>
        </g>
        <g transform="matrix(48,0,0,48,424.536,246.452)">
            <path d="M0.102,0.132L0.352,0.132L0.352,-0.448L0.093,-0.448L0.093,-0.516L0.432,-0.516L0.432,0.082C0.432,0.117 0.423,0.145 0.405,0.167C0.386,0.189 0.357,0.2 0.318,0.2L0.102,0.2L0.102,0.132ZM0.392,-0.63C0.369,-0.63 0.352,-0.635 0.343,-0.645C0.334,-0.654 0.329,-0.666 0.329,-0.681L0.329,-0.697C0.329,-0.712 0.334,-0.724 0.343,-0.734C0.352,-0.743 0.369,-0.748 0.392,-0.748C0.415,-0.748 0.432,-0.743 0.441,-0.734C0.45,-0.724 0.455,-0.712 0.455,-0.697L0.455,-0.681C0.455,-0.666 0.45,-0.654 0.441,-0.645C0.432,-0.635 0.415,-0.63 0.392,-0.63Z" style="fill:rgb(107,107,107);fill-rule:nonzero;"/>
        </g>
        <g transform="matrix(48,0,0,48,451.656,246.452)">
            <path d="M0.09,0.138L0.438,-0.76L0.51,-0.76L0.162,0.138L0.09,0.138Z" style="fill:rgb(107,107,107);fill-rule:nonzero;"/>
        </g>
    </g>
</svg>
